<?xml version="1.0" encoding="utf-8"?>
<!-- Generator: Adobe Illustrator 16.0.0, SVG Export Plug-In . SVG Version: 6.00 Build 0)  -->
<!DOCTYPE svg PUBLIC "-//W3C//DTD SVG 1.1//EN" "http://www.w3.org/Graphics/SVG/1.1/DTD/svg11.dtd">
<svg version="1.1" id="Layer_1" xmlns="http://www.w3.org/2000/svg" xmlns:xlink="http://www.w3.org/1999/xlink" x="0px" y="0px"
	 width="512px" height="512px" viewBox="0 0 512 512" enable-background="new 0 0 512 512" xml:space="preserve">
<path fill="#020202" d="M256,31C131.736,31,30.999,131.736,30.999,256S131.736,481,256,481s225.001-100.736,225.001-225
	S380.265,31,256,31z M247.5,174.5c-15.464,0-28-12.536-28-28s12.536-28,28-28s28,12.536,28,28S262.964,174.5,247.5,174.5z
	 M290.5,238.5c-15.464,0-28-12.536-28-28s12.536-28,28-28s28,12.536,28,28S305.964,238.5,290.5,238.5z M331.5,174.5
	c-15.464,0-28-12.536-28-28s12.536-28,28-28s28,12.536,28,28S346.964,174.5,331.5,174.5z"/>
</svg>
