<?xml version="1.0" standalone="no"?>
<!DOCTYPE svg PUBLIC "-//W3C//DTD SVG 20010904//EN"
 "http://www.w3.org/TR/2001/REC-SVG-20010904/DTD/svg10.dtd">
<svg version="1.0" xmlns="http://www.w3.org/2000/svg"
 width="980.000000pt" height="980.000000pt" viewBox="0 0 980.000000 980.000000"
 preserveAspectRatio="xMidYMid meet">

<g transform="translate(0.000000,980.000000) scale(0.100000,-0.100000)"
fill="#000000" stroke="none">
<path d="M6883 9778 c-66 -37 -550 -505 -575 -556 -25 -53 -19 -119 16 -172
33 -49 2681 -2880 2722 -2909 45 -32 111 -38 156 -15 20 11 154 132 299 269
316 301 330 324 276 438 -16 35 -376 425 -1359 1476 -735 786 -1352 1441
-1372 1456 -51 39 -109 43 -163 13z"/>
<path d="M5909 8863 c-64 -38 -522 -477 -549 -526 -30 -52 -25 -131 12 -179
62 -80 2654 -2886 2689 -2909 62 -43 103 -46 165 -12 69 36 551 477 582 531
29 52 29 115 -1 164 -28 46 -2646 2889 -2694 2925 -28 21 -49 28 -97 31 -53 3
-67 -1 -107 -25z"/>
<path d="M5905 6898 c-16 -6 -46 -22 -65 -37 -19 -14 -381 -350 -805 -746
-423 -397 -1060 -992 -1415 -1324 -355 -331 -658 -620 -674 -641 -39 -52 -46
-120 -19 -181 19 -43 85 -118 551 -626 203 -221 242 -253 313 -253 85 0 75 -8
1564 1385 787 736 1443 1356 1459 1378 40 54 46 118 14 174 -29 53 -737 825
-781 852 -41 25 -103 34 -142 19z"/>
<path d="M1583 4570 c-55 -25 -562 -487 -591 -539 -29 -51 -29 -115 1 -163 12
-20 620 -685 1350 -1477 932 -1011 1340 -1447 1367 -1461 57 -29 124 -26 182
8 67 39 545 497 570 546 26 51 20 113 -16 160 -47 62 -2658 2870 -2694 2899
-32 24 -89 47 -117 47 -5 0 -29 -9 -52 -20z"/>
<path d="M593 3672 c-17 -9 -149 -129 -294 -267 -316 -301 -330 -324 -276
-438 16 -35 376 -425 1359 -1476 735 -786 1352 -1441 1372 -1456 51 -39 109
-43 163 -13 23 13 156 133 297 267 305 292 326 323 277 419 -25 48 -2690 2918
-2744 2955 -47 32 -105 35 -154 9z"/>
</g>
</svg>
