<?xml version="1.0" encoding="utf-8"?>
<!-- Generator: Adobe Illustrator 24.3.0, SVG Export Plug-In . SVG Version: 6.00 Build 0)  -->
<svg version="1.1"
	 id="Layer_1" xmlns:cc="http://web.resource.org/cc/" xmlns:dc="http://purl.org/dc/elements/1.1/" xmlns:inkscape="http://www.inkscape.org/namespaces/inkscape" xmlns:ns1="http://sozi.baierouge.fr" xmlns:rdf="http://www.w3.org/1999/02/22-rdf-syntax-ns#" xmlns:sodipodi="http://sodipodi.sourceforge.net/DTD/sodipodi-0.dtd" xmlns:svg="http://www.w3.org/2000/svg"
	 xmlns="http://www.w3.org/2000/svg" xmlns:xlink="http://www.w3.org/1999/xlink" x="0px" y="0px" viewBox="0 0 123.5 123.5"
	 style="enable-background:new 0 0 123.5 123.5;" xml:space="preserve">
<style type="text/css">
	.st0{clip-path:url(#SVGID_2_);}
	.st1{fill:#FFFFFF;}
</style>
<g>
	<defs>
		<rect id="SVGID_1_" x="8.3" y="6.8" width="109.2" height="109.2"/>
	</defs>
	<clipPath id="SVGID_2_">
		<use xlink:href="#SVGID_1_"  style="overflow:visible;"/>
	</clipPath>
	<g class="st0">
		<path d="M109.9,123.5c8.1,0,14.7-6.6,14.7-14.8v-94c0-8.1-6.6-14.7-14.7-14.7h-94C7.8,0,1.1,6.6,1.1,14.8v94
			c0,8.2,6.6,14.8,14.8,14.8L109.9,123.5L109.9,123.5z"/>
		<path class="st1" d="M15.9,2.5C9.1,2.5,3.6,8,3.6,14.8v94c0,6.8,5.5,12.3,12.2,12.3h94c6.8,0,12.3-5.5,12.3-12.3v-94
			c0-6.8-5.5-12.2-12.3-12.2L15.9,2.5L15.9,2.5z"/>
		<path d="M25.5,54.6c-0.4,0.9-0.8,1.9-0.9,3c-0.1,0.5-0.1,1.1-0.1,1.6l0.4,24.6l-8.5,18.3c-0.3,0.5-0.5,1.2-0.6,1.8
			c-0.5,3,1.6,5.8,4.6,6.3c2.3,0.4,4.6-0.8,5.7-2.8l9.4-20c0.2-0.5,0.4-1,0.4-1.5c0-0.2,0-0.5,0-0.8L35.8,70l14.4,6.3l2.3,14.9
			c0.5,2.2,2.2,3.9,4.6,4.3c3,0.4,5.8-1.6,6.3-4.6c0.1-0.5,0.1-1,0-1.5l-2.8-17.9c-0.3-1.7-1.5-3.2-3.1-4l-12.8-5.7l8.2-14.2
			l4.1,5.2c0.4,0.5,1,0.9,1.6,1.1l15.5,4.5c2,0.4,4.1-0.6,5-2.6c0.9-2.2-0.2-4.8-2.4-5.7c-0.1,0-0.1,0-0.2-0.1l-13.4-4L52.6,33.7
			c-1.5-1.6-3.5-2.8-5.9-3.1c-4.1-0.6-8,1.3-10,4.7L25.5,54.6L25.5,54.6z"/>
		<path d="M69.8,89.9l-1,7.4l-26.6,6.5l0.2,4.6h64.8c2.3,0,4.1-1.9,4.1-4.2l-0.1-87.4l-8.9-2.1l-5.1,23l-8.5,3.6l-7.6,21.2l7.2,16.2
			l-2,6.2L69.8,89.9L69.8,89.9z"/>
		<path d="M51.8,29.5c4.6,0,8.3-3.7,8.3-8.3c0-4.6-3.7-8.3-8.3-8.3c-4.6,0-8.3,3.7-8.3,8.3C43.5,25.8,47.2,29.5,51.8,29.5z"/>
		<path d="M35.3,30.8c0.6-1.1,0.3-2.6-0.9-3.2l-4-2.3c-1.1-0.6-2.6-0.3-3.2,0.9L14.8,47.4c-0.6,1.1-0.3,2.6,0.9,3.2l4,2.3
			c1.1,0.7,2.6,0.3,3.2-0.9L35.3,30.8z"/>
	</g>
</g>
</svg>
